<mxfile host="app.diagrams.net" agent="Mozilla/5.0 (Windows NT 10.0; Win64; x64) AppleWebKit/537.36 (KHTML, like Gecko) Chrome/134.0.0.0 Safari/537.36 Edg/134.0.0.0" version="26.1.0">
  <diagram name="Página-1" id="aayKU6H35U7SOS3VC21x">
    <mxGraphModel dx="1042" dy="565" grid="1" gridSize="10" guides="1" tooltips="1" connect="1" arrows="1" fold="1" page="1" pageScale="1" pageWidth="827" pageHeight="1169" math="0" shadow="0">
      <root>
        <mxCell id="0" />
        <mxCell id="1" parent="0" />
        <mxCell id="TPdqnRexAtQKensr9UtH-8" style="edgeStyle=orthogonalEdgeStyle;rounded=0;orthogonalLoop=1;jettySize=auto;html=1;entryX=0;entryY=0.5;entryDx=0;entryDy=0;" edge="1" parent="1" source="TPdqnRexAtQKensr9UtH-1" target="TPdqnRexAtQKensr9UtH-2">
          <mxGeometry relative="1" as="geometry" />
        </mxCell>
        <mxCell id="TPdqnRexAtQKensr9UtH-1" value="API Reddit" style="ellipse;shape=cloud;whiteSpace=wrap;html=1;" vertex="1" parent="1">
          <mxGeometry x="40" y="40" width="120" height="80" as="geometry" />
        </mxCell>
        <mxCell id="TPdqnRexAtQKensr9UtH-2" value="Coleta de Dados" style="rounded=1;whiteSpace=wrap;html=1;" vertex="1" parent="1">
          <mxGeometry x="130" y="170" width="120" height="60" as="geometry" />
        </mxCell>
        <mxCell id="TPdqnRexAtQKensr9UtH-3" value="Processamento de Dados" style="rounded=1;whiteSpace=wrap;html=1;" vertex="1" parent="1">
          <mxGeometry x="294" y="170" width="120" height="60" as="geometry" />
        </mxCell>
        <mxCell id="TPdqnRexAtQKensr9UtH-4" value="Vetorização" style="rounded=1;whiteSpace=wrap;html=1;" vertex="1" parent="1">
          <mxGeometry x="450" y="170" width="120" height="60" as="geometry" />
        </mxCell>
        <mxCell id="TPdqnRexAtQKensr9UtH-5" value="Análise de Sentimento" style="rounded=1;whiteSpace=wrap;html=1;" vertex="1" parent="1">
          <mxGeometry x="610" y="170" width="120" height="60" as="geometry" />
        </mxCell>
        <mxCell id="TPdqnRexAtQKensr9UtH-6" value="Armazenamento dos Resultados" style="rounded=1;whiteSpace=wrap;html=1;" vertex="1" parent="1">
          <mxGeometry x="770" y="170" width="120" height="60" as="geometry" />
        </mxCell>
        <mxCell id="TPdqnRexAtQKensr9UtH-10" style="edgeStyle=orthogonalEdgeStyle;rounded=0;orthogonalLoop=1;jettySize=auto;html=1;entryX=0.5;entryY=1;entryDx=0;entryDy=0;" edge="1" parent="1" source="TPdqnRexAtQKensr9UtH-7" target="TPdqnRexAtQKensr9UtH-3">
          <mxGeometry relative="1" as="geometry" />
        </mxCell>
        <mxCell id="TPdqnRexAtQKensr9UtH-7" value="JSON" style="shape=cylinder3;whiteSpace=wrap;html=1;boundedLbl=1;backgroundOutline=1;size=15;" vertex="1" parent="1">
          <mxGeometry x="160" y="290" width="60" height="80" as="geometry" />
        </mxCell>
        <mxCell id="TPdqnRexAtQKensr9UtH-9" style="edgeStyle=orthogonalEdgeStyle;rounded=0;orthogonalLoop=1;jettySize=auto;html=1;entryX=0.5;entryY=0;entryDx=0;entryDy=0;entryPerimeter=0;" edge="1" parent="1" source="TPdqnRexAtQKensr9UtH-2" target="TPdqnRexAtQKensr9UtH-7">
          <mxGeometry relative="1" as="geometry" />
        </mxCell>
        <mxCell id="TPdqnRexAtQKensr9UtH-17" value="" style="edgeStyle=orthogonalEdgeStyle;rounded=0;orthogonalLoop=1;jettySize=auto;html=1;" edge="1" parent="1" source="TPdqnRexAtQKensr9UtH-11" target="TPdqnRexAtQKensr9UtH-13">
          <mxGeometry relative="1" as="geometry" />
        </mxCell>
        <mxCell id="TPdqnRexAtQKensr9UtH-11" value="Coleta de posts" style="rounded=0;whiteSpace=wrap;html=1;fillColor=light-dark(#CDA2BE,var(--ge-dark-color, #121212));" vertex="1" parent="1">
          <mxGeometry x="174" y="525" width="120" height="60" as="geometry" />
        </mxCell>
        <mxCell id="TPdqnRexAtQKensr9UtH-18" value="" style="edgeStyle=orthogonalEdgeStyle;rounded=0;orthogonalLoop=1;jettySize=auto;html=1;" edge="1" parent="1" source="TPdqnRexAtQKensr9UtH-13" target="TPdqnRexAtQKensr9UtH-14">
          <mxGeometry relative="1" as="geometry" />
        </mxCell>
        <mxCell id="TPdqnRexAtQKensr9UtH-13" value="Processamento dos posts" style="rounded=0;whiteSpace=wrap;html=1;fillColor=light-dark(#B9E0A5,var(--ge-dark-color, #121212));" vertex="1" parent="1">
          <mxGeometry x="354" y="525" width="120" height="60" as="geometry" />
        </mxCell>
        <mxCell id="TPdqnRexAtQKensr9UtH-19" value="" style="edgeStyle=orthogonalEdgeStyle;rounded=0;orthogonalLoop=1;jettySize=auto;html=1;" edge="1" parent="1" source="TPdqnRexAtQKensr9UtH-14" target="TPdqnRexAtQKensr9UtH-15">
          <mxGeometry relative="1" as="geometry" />
        </mxCell>
        <mxCell id="TPdqnRexAtQKensr9UtH-14" value="Armazenamento dos resultados" style="rounded=0;whiteSpace=wrap;html=1;fillColor=light-dark(#FFB570,var(--ge-dark-color, #121212));" vertex="1" parent="1">
          <mxGeometry x="530" y="525" width="120" height="60" as="geometry" />
        </mxCell>
        <mxCell id="TPdqnRexAtQKensr9UtH-20" value="" style="edgeStyle=orthogonalEdgeStyle;rounded=0;orthogonalLoop=1;jettySize=auto;html=1;" edge="1" parent="1" source="TPdqnRexAtQKensr9UtH-15" target="TPdqnRexAtQKensr9UtH-16">
          <mxGeometry relative="1" as="geometry" />
        </mxCell>
        <mxCell id="TPdqnRexAtQKensr9UtH-15" value="Aplicação de modelo" style="rounded=0;whiteSpace=wrap;html=1;fillColor=light-dark(#7EA6E0,var(--ge-dark-color, #121212));" vertex="1" parent="1">
          <mxGeometry x="707" y="525" width="120" height="60" as="geometry" />
        </mxCell>
        <mxCell id="TPdqnRexAtQKensr9UtH-16" value="Sistema de recomendação" style="rounded=0;whiteSpace=wrap;html=1;fillColor=light-dark(#FFD966,var(--ge-dark-color, #121212));" vertex="1" parent="1">
          <mxGeometry x="880" y="525" width="120" height="60" as="geometry" />
        </mxCell>
      </root>
    </mxGraphModel>
  </diagram>
</mxfile>
